<?xml version="1.0" encoding="UTF-8"?>
<svg xmlns="http://www.w3.org/2000/svg" viewBox="0 0 604.21 184.42">
  <g id="_лой_1" data-name="Слой 1"/>
  <g id="_лой_2" data-name="Слой 2">
    <g id="_лой_1-2" data-name="Слой 1">
      <g>
        <g>
          <g>
            <path d="M104.18,90.31h-20.52L30.7,0h20.52l52.95,90.31Zm-19.91-1.07h18.05L50.61,1.07h-18.05l51.7,88.18Z"/>
            <path d="M76.95,90.31h-20.52L3.47,0H24l52.95,90.31Zm-19.91-1.07h18.05L23.39,1.07H5.33L57.04,89.25Z"/>
            <path d="M131.41,90.31h-20.52L57.93,0h20.52l52.95,90.31Zm-19.91-1.07h18.05L77.84,1.07h-18.05l51.7,88.18Z"/>
            <g>
              <polygon points="25.91 4.33 26.54 5.39 34.48 5.39 33.86 4.33 25.91 4.33"/>
              <polygon points="53.14 4.33 53.77 5.39 61.71 5.39 61.09 4.33 53.14 4.33"/>
              <polygon points="123.07 89.78 125.29 93.57 53.56 93.57 1.86 5.39 7.25 5.39 6.63 4.33 0 4.33 52.95 94.64 127.15 94.64 124.3 89.78 123.07 89.78"/>
            </g>
          </g>
          <polygon points="106.99 136.48 34.78 136.48 86.56 48.16 158.77 48.16 106.99 136.48"/>
          <g>
            <polygon points="76.6 131.36 57.51 131.36 109.3 43.04 128.39 43.04 76.6 131.36" style="fill: #39a3dc;"/>
            <polygon points="103.55 131.36 84.46 131.36 136.25 43.04 155.34 43.04 103.55 131.36" style="fill: #39a3dc;"/>
            <polygon points="49.65 131.36 30.56 131.36 82.35 43.04 101.44 43.04 49.65 131.36" style="fill: #39a3dc;"/>
          </g>
        </g>
        <g>
          <path d="M182.75,74.84c.86-.64,1.59-1.39,2.19-2.27,.6-.88,1.09-1.96,1.49-3.23,.39-1.27,.7-2.76,.93-4.46,.22-1.7,.39-3.71,.51-6.04l.73-15.89h26.16c0,5.35,0,10.68,.03,15.97,.02,5.3,.03,10.62,.03,15.97h3.37v15.38h-7.02v-8.65h-24.25v8.65h-7.02v-15.44h2.86Zm12.74-25.1l-.45,9.26c-.07,1.65-.17,3.21-.28,4.69-.11,1.48-.28,2.88-.51,4.21-.22,1.33-.54,2.58-.95,3.76-.41,1.18-.97,2.26-1.68,3.23h15.55v-25.15h-11.68Z"/>
          <path d="M252.99,69.28c0,2.1-.39,3.93-1.18,5.5-.78,1.57-1.85,2.9-3.19,3.99-1.34,1.09-2.92,1.9-4.74,2.44-1.81,.54-3.73,.81-5.74,.81s-3.93-.27-5.74-.81c-1.81-.54-3.39-1.36-4.74-2.44-1.34-1.08-2.41-2.41-3.19-3.99s-1.18-3.41-1.18-5.5v-14.2c0-2.06,.41-3.87,1.23-5.45,.82-1.57,1.92-2.88,3.31-3.93,1.38-1.05,2.97-1.83,4.76-2.36,1.79-.52,3.64-.79,5.55-.79s3.75,.28,5.55,.84c1.79,.56,3.38,1.38,4.76,2.44,1.38,1.07,2.48,2.4,3.31,3.99,.82,1.59,1.23,3.42,1.23,5.47v13.98Zm-7.69-12.63c0-1.27-.21-2.35-.62-3.23-.41-.88-.95-1.6-1.63-2.16s-1.43-.97-2.27-1.24c-.84-.26-1.71-.39-2.61-.39s-1.78,.13-2.64,.39c-.86,.26-1.63,.67-2.3,1.24-.67,.56-1.22,1.28-1.63,2.16-.41,.88-.62,1.96-.62,3.23v11.28c0,1.27,.21,2.36,.62,3.26,.41,.9,.95,1.63,1.63,2.19,.67,.56,1.44,.96,2.3,1.21,.86,.24,1.74,.36,2.64,.36s1.77-.12,2.61-.36c.84-.24,1.6-.65,2.27-1.21s1.22-1.29,1.63-2.19c.41-.9,.62-1.98,.62-3.26v-11.28Z"/>
          <path d="M276.62,42.95c1.91,0,3.56,.37,4.94,1.1,1.38,.73,2.54,1.68,3.45,2.83,.92,1.16,1.59,2.46,2.02,3.9,.43,1.44,.65,2.85,.65,4.24s-.25,2.84-.76,4.27c-.51,1.42-1.24,2.71-2.19,3.87-.95,1.16-2.13,2.11-3.54,2.83-1.4,.73-3,1.1-4.8,1.1h-9.38v14.54h-7.69V42.95h17.29Zm-9.6,17.24h7.86c1.76,0,3.09-.49,3.99-1.47,.9-.98,1.35-2.2,1.35-3.67s-.46-2.75-1.38-3.73c-.92-.98-2.24-1.47-3.96-1.47h-7.86v10.33Z"/>
          <path d="M321.14,69.28c0,2.1-.39,3.93-1.18,5.5-.78,1.57-1.85,2.9-3.19,3.99-1.34,1.09-2.92,1.9-4.74,2.44-1.81,.54-3.73,.81-5.74,.81s-3.93-.27-5.74-.81c-1.81-.54-3.39-1.36-4.74-2.44-1.34-1.08-2.41-2.41-3.19-3.99-.78-1.57-1.18-3.41-1.18-5.5v-14.2c0-2.06,.41-3.87,1.23-5.45,.82-1.57,1.92-2.88,3.31-3.93,1.38-1.05,2.97-1.83,4.76-2.36,1.79-.52,3.64-.79,5.55-.79s3.75,.28,5.55,.84c1.79,.56,3.38,1.38,4.76,2.44,1.38,1.07,2.48,2.4,3.31,3.99,.82,1.59,1.23,3.42,1.23,5.47v13.98Zm-7.69-12.63c0-1.27-.21-2.35-.62-3.23-.41-.88-.95-1.6-1.63-2.16s-1.43-.97-2.27-1.24c-.84-.26-1.71-.39-2.61-.39s-1.78,.13-2.64,.39c-.86,.26-1.63,.67-2.3,1.24-.67,.56-1.22,1.28-1.63,2.16-.41,.88-.62,1.96-.62,3.23v11.28c0,1.27,.21,2.36,.62,3.26,.41,.9,.95,1.63,1.63,2.19,.67,.56,1.44,.96,2.3,1.21,.86,.24,1.74,.36,2.64,.36s1.77-.12,2.61-.36c.84-.24,1.6-.65,2.27-1.21s1.22-1.29,1.63-2.19c.41-.9,.62-1.98,.62-3.26v-11.28Z"/>
          <path d="M346.12,81.63v-16.34h-2.69c-.79,0-1.52,.07-2.19,.2-.67,.13-1.29,.38-1.85,.76-.56,.37-1.06,.9-1.49,1.57-.43,.67-.8,1.53-1.09,2.58l-3.14,11.23h-8.42l3.71-12.46c.56-1.91,1.3-3.53,2.22-4.86,.92-1.33,2.18-2.25,3.79-2.78-1.24-.41-2.32-1.24-3.26-2.5-.94-1.25-1.68-2.83-2.25-4.74l-3.54-11.34h7.92l3.37,10.61c.34,1.05,.72,1.89,1.15,2.53,.43,.64,.93,1.13,1.49,1.49,.56,.36,1.17,.6,1.83,.73,.65,.13,1.36,.2,2.11,.2h2.36v-15.55h7.69v15.55h2.36c.75,0,1.45-.07,2.11-.2,.65-.13,1.25-.37,1.8-.73,.54-.35,1.04-.85,1.49-1.49,.45-.64,.84-1.48,1.18-2.53l3.37-10.61h7.86l-3.48,11.34c-.6,1.91-1.37,3.49-2.3,4.74-.94,1.25-2,2.09-3.2,2.5,1.61,.52,2.86,1.45,3.76,2.78,.9,1.33,1.63,2.95,2.19,4.86l3.71,12.46h-8.37l-3.2-11.23c-.3-1.05-.67-1.91-1.1-2.58-.43-.67-.92-1.2-1.46-1.57-.54-.37-1.15-.63-1.82-.76-.67-.13-1.4-.2-2.19-.2h-2.69v16.34h-7.69Z"/>
          <path d="M400.92,81.63v-16.17h-14.26v16.17h-7.69V42.95h7.69v15.61h14.26v-15.61h7.8v38.68h-7.8Z"/>
          <path d="M444.71,69.28c0,2.1-.39,3.93-1.18,5.5-.78,1.57-1.85,2.9-3.19,3.99-1.34,1.09-2.92,1.9-4.74,2.44-1.81,.54-3.73,.81-5.74,.81s-3.93-.27-5.74-.81c-1.81-.54-3.39-1.36-4.74-2.44-1.34-1.08-2.41-2.41-3.19-3.99s-1.18-3.41-1.18-5.5v-14.2c0-2.06,.41-3.87,1.23-5.45,.82-1.57,1.92-2.88,3.31-3.93,1.38-1.05,2.97-1.83,4.76-2.36,1.79-.52,3.64-.79,5.55-.79s3.75,.28,5.55,.84c1.79,.56,3.38,1.38,4.76,2.44s2.48,2.4,3.31,3.99c.82,1.59,1.23,3.42,1.23,5.47v13.98Zm-7.69-12.63c0-1.27-.21-2.35-.62-3.23-.41-.88-.95-1.6-1.63-2.16s-1.43-.97-2.27-1.24c-.84-.26-1.71-.39-2.61-.39s-1.78,.13-2.64,.39c-.86,.26-1.63,.67-2.3,1.24-.67,.56-1.22,1.28-1.63,2.16-.41,.88-.62,1.96-.62,3.23v11.28c0,1.27,.21,2.36,.62,3.26,.41,.9,.95,1.63,1.63,2.19,.67,.56,1.44,.96,2.3,1.21,.86,.24,1.74,.36,2.64,.36s1.77-.12,2.61-.36c.84-.24,1.6-.65,2.27-1.21s1.22-1.29,1.63-2.19c.41-.9,.62-1.98,.62-3.26v-11.28Z"/>
          <path d="M451.17,42.95h26.67v6.91h-18.98v8.87h16.23v6.91h-16.23v9.09h18.98v6.91h-26.67V42.95Z"/>
          <path d="M202.68,103.52c-1.2-1.01-2.49-1.71-3.87-2.11-1.38-.39-2.73-.59-4.04-.59-.86,0-1.72,.12-2.58,.37-.86,.24-1.63,.65-2.3,1.21-.67,.56-1.23,1.29-1.66,2.19-.43,.9-.65,1.98-.65,3.26v11.28c0,1.27,.21,2.35,.65,3.23,.43,.88,.99,1.6,1.68,2.16,.69,.56,1.46,.97,2.3,1.24,.84,.26,1.69,.39,2.55,.39,1.31,0,2.63-.19,3.96-.56,1.33-.37,2.67-1.08,4.01-2.13l3.65,5.95c-1.42,1.2-3.16,2.13-5.22,2.81-2.06,.67-4.23,1.01-6.51,1.01-1.83,0-3.63-.26-5.39-.79-1.76-.52-3.33-1.3-4.72-2.33-1.39-1.03-2.51-2.32-3.37-3.87-.86-1.55-1.29-3.38-1.29-5.47v-14.48c0-2.06,.42-3.86,1.26-5.42,.84-1.55,1.95-2.85,3.31-3.9,1.37-1.05,2.93-1.83,4.69-2.36,1.76-.52,3.56-.79,5.39-.79,2.25,0,4.41,.3,6.48,.9,2.08,.6,3.86,1.55,5.36,2.86l-3.71,5.95Z"/>
          <path d="M226.77,101.05v31.78h-7.69v-31.78h-10.27v-6.91h28.18v6.91h-10.22Z"/>
          <path d="M258.21,94.15c1.91,0,3.56,.37,4.94,1.1,1.38,.73,2.54,1.68,3.45,2.83,.92,1.16,1.59,2.46,2.02,3.9,.43,1.44,.65,2.85,.65,4.24s-.25,2.84-.76,4.27c-.51,1.42-1.24,2.71-2.19,3.87-.95,1.16-2.13,2.11-3.54,2.83-1.4,.73-3,1.1-4.8,1.1h-9.38v14.54h-7.69v-38.68h17.29Zm-9.6,17.24h7.86c1.76,0,3.09-.49,3.99-1.47,.9-.98,1.35-2.2,1.35-3.67s-.46-2.75-1.38-3.73c-.92-.98-2.24-1.47-3.96-1.47h-7.86v10.33Z"/>
          <path d="M302.73,120.48c0,2.1-.39,3.93-1.18,5.5-.78,1.57-1.85,2.9-3.19,3.99-1.34,1.09-2.92,1.9-4.74,2.44-1.81,.54-3.73,.81-5.74,.81s-3.93-.27-5.74-.81c-1.81-.54-3.39-1.36-4.74-2.44-1.34-1.08-2.41-2.41-3.19-3.99s-1.18-3.41-1.18-5.5v-14.2c0-2.06,.41-3.87,1.23-5.45,.82-1.57,1.92-2.88,3.31-3.93,1.38-1.05,2.97-1.83,4.76-2.36,1.79-.52,3.64-.79,5.55-.79s3.75,.28,5.55,.84c1.79,.56,3.38,1.38,4.76,2.44,1.38,1.07,2.48,2.4,3.31,3.99,.82,1.59,1.23,3.42,1.23,5.47v13.98Zm-7.69-12.63c0-1.27-.21-2.35-.62-3.23-.41-.88-.95-1.6-1.63-2.16-.67-.56-1.43-.97-2.27-1.24-.84-.26-1.71-.39-2.61-.39s-1.78,.13-2.64,.39c-.86,.26-1.63,.67-2.3,1.24-.67,.56-1.22,1.28-1.63,2.16-.41,.88-.62,1.96-.62,3.23v11.28c0,1.27,.21,2.36,.62,3.26,.41,.9,.95,1.63,1.63,2.19,.67,.56,1.44,.96,2.3,1.21,.86,.24,1.74,.36,2.64,.36s1.77-.12,2.61-.36c.84-.24,1.6-.65,2.27-1.21s1.22-1.29,1.63-2.19c.41-.9,.62-1.98,.62-3.26v-11.28Z"/>
          <path d="M332.37,107.62l-3.82,5.9c-.45,.71-1,1.58-1.66,2.61-.66,1.03-1.38,2.14-2.16,3.34s-1.59,2.43-2.41,3.7c-.82,1.27-1.62,2.51-2.39,3.71-.77,1.2-1.49,2.31-2.16,3.34s-1.24,1.9-1.68,2.61h-6.96v-38.68h7.69v25.43h.22l8.07-12.63,8.23-12.8h7v38.68h-7.69v-25.21h-.28Z"/>
          <path d="M362.35,101.05v31.78h-7.69v-31.78h-10.27v-6.91h28.18v6.91h-10.22Z"/>
          <path d="M376.61,94.15h26.67v6.91h-18.98v8.87h16.23v6.91h-16.23v9.09h18.98v6.91h-26.67v-38.68Z"/>
          <path d="M420.46,101.05v10.27c0,3.22-.19,6.14-.56,8.76-.37,2.62-1.05,4.88-2.02,6.79-.97,1.91-2.33,3.44-4.07,4.6-1.74,1.16-3.98,1.93-6.71,2.3l-1.68-6.29c1.61-.52,2.9-1.2,3.87-2.02,.97-.82,1.73-1.87,2.27-3.14,.54-1.27,.9-2.79,1.07-4.55,.17-1.76,.25-3.84,.25-6.23v-17.4h25.49v38.68h-7.8v-31.78h-10.11Z"/>
          <path d="M445.33,132.83v-38.68h7.69v14.71h8.93c1.91,0,3.61,.3,5.11,.9,1.5,.6,2.77,1.43,3.82,2.48,1.05,1.05,1.85,2.31,2.41,3.77,.56,1.46,.84,3.06,.84,4.78,0,1.43-.22,2.85-.67,4.28-.45,1.43-1.15,2.71-2.11,3.85s-2.18,2.08-3.68,2.81c-1.5,.73-3.31,1.1-5.45,1.1h-16.9Zm7.69-6.91h7.97c1.72,0,3.1-.49,4.13-1.46,1.03-.97,1.54-2.19,1.54-3.65s-.51-2.71-1.54-3.65c-1.03-.94-2.42-1.4-4.18-1.4h-7.92v10.16Z"/>
          <path d="M501.47,103.52c-1.2-1.01-2.49-1.71-3.87-2.11-1.38-.39-2.73-.59-4.04-.59-.86,0-1.72,.12-2.58,.37-.86,.24-1.63,.65-2.3,1.21-.67,.56-1.23,1.29-1.66,2.19-.43,.9-.65,1.98-.65,3.26v11.28c0,1.27,.21,2.35,.65,3.23,.43,.88,.99,1.6,1.68,2.16,.69,.56,1.46,.97,2.3,1.24,.84,.26,1.69,.39,2.55,.39,1.31,0,2.63-.19,3.96-.56,1.33-.37,2.67-1.08,4.01-2.13l3.65,5.95c-1.42,1.2-3.16,2.13-5.22,2.81-2.06,.67-4.23,1.01-6.51,1.01-1.83,0-3.63-.26-5.39-.79-1.76-.52-3.33-1.3-4.72-2.33-1.39-1.03-2.51-2.32-3.37-3.87-.86-1.55-1.29-3.38-1.29-5.47v-14.48c0-2.06,.42-3.86,1.26-5.42,.84-1.55,1.95-2.85,3.31-3.9,1.37-1.05,2.93-1.83,4.69-2.36,1.76-.52,3.56-.79,5.39-.79,2.25,0,4.41,.3,6.48,.9,2.08,.6,3.86,1.55,5.36,2.86l-3.71,5.95Z"/>
          <path d="M525.55,101.05v31.78h-7.69v-31.78h-10.27v-6.91h28.18v6.91h-10.22Z"/>
          <path d="M569.06,121.34c0,1.57-.24,3.05-.73,4.43-.49,1.38-1.2,2.6-2.13,3.64-.94,1.05-2.1,1.88-3.48,2.49-1.38,.62-3,.92-4.83,.92h-18.13v-38.68h17.4c1.95,0,3.62,.28,5.03,.84,1.4,.56,2.56,1.33,3.48,2.31,.92,.98,1.6,2.1,2.05,3.38,.45,1.27,.67,2.61,.67,3.99s-.38,2.89-1.15,4.39c-.77,1.5-1.97,2.66-3.62,3.49,.94,.45,1.74,1.02,2.41,1.71s1.24,1.44,1.68,2.24c.45,.8,.79,1.63,1.01,2.47s.34,1.63,.34,2.38Zm-8.59-15.91c0-1.42-.42-2.51-1.26-3.26-.84-.75-2.16-1.12-3.96-1.12h-7.8v8.48h7.92c1.61,0,2.86-.37,3.76-1.12,.9-.75,1.35-1.74,1.35-2.98Zm.45,15.64c0-1.49-.47-2.69-1.4-3.6-.94-.91-2.23-1.37-3.87-1.37h-8.2v9.82h8.25c1.72,0,3.02-.44,3.9-1.31,.88-.87,1.32-2.06,1.32-3.54Z"/>
          <path d="M604.21,120.48c0,2.1-.39,3.93-1.18,5.5-.78,1.57-1.85,2.9-3.19,3.99-1.34,1.09-2.92,1.9-4.74,2.44-1.81,.54-3.73,.81-5.74,.81s-3.93-.27-5.74-.81c-1.81-.54-3.39-1.36-4.74-2.44-1.34-1.08-2.41-2.41-3.19-3.99-.78-1.57-1.18-3.41-1.18-5.5v-14.2c0-2.06,.41-3.87,1.23-5.45,.82-1.57,1.92-2.88,3.31-3.93,1.38-1.05,2.97-1.83,4.76-2.36,1.79-.52,3.64-.79,5.55-.79s3.75,.28,5.55,.84c1.79,.56,3.38,1.38,4.76,2.44,1.38,1.07,2.48,2.4,3.31,3.99,.82,1.59,1.23,3.42,1.23,5.47v13.98Zm-7.69-12.63c0-1.27-.21-2.35-.62-3.23-.41-.88-.95-1.6-1.63-2.16-.67-.56-1.43-.97-2.27-1.24-.84-.26-1.71-.39-2.61-.39s-1.78,.13-2.64,.39c-.86,.26-1.63,.67-2.3,1.24-.67,.56-1.22,1.28-1.63,2.16-.41,.88-.62,1.96-.62,3.23v11.28c0,1.27,.21,2.36,.62,3.26,.41,.9,.95,1.63,1.63,2.19,.67,.56,1.44,.96,2.3,1.21,.86,.24,1.74,.36,2.64,.36s1.77-.12,2.61-.36c.84-.24,1.6-.65,2.27-1.21s1.22-1.29,1.63-2.19c.41-.9,.62-1.98,.62-3.26v-11.28Z"/>
          <path d="M209.25,172.53c0,1.57-.24,3.05-.73,4.43-.49,1.38-1.2,2.6-2.13,3.64-.94,1.05-2.1,1.88-3.48,2.49-1.38,.62-3,.92-4.83,.92h-18.13v-38.68h17.4c1.95,0,3.62,.28,5.03,.84,1.4,.56,2.56,1.33,3.48,2.31,.92,.98,1.6,2.1,2.05,3.38s.67,2.61,.67,3.99-.38,2.89-1.15,4.39c-.77,1.5-1.97,2.66-3.62,3.49,.94,.45,1.74,1.02,2.41,1.71s1.24,1.44,1.68,2.24,.79,1.63,1.01,2.47c.22,.84,.34,1.63,.34,2.38Zm-8.59-15.91c0-1.42-.42-2.51-1.26-3.26-.84-.75-2.16-1.12-3.96-1.12h-7.8v8.48h7.92c1.61,0,2.86-.37,3.76-1.12,.9-.75,1.35-1.74,1.35-2.98Zm.45,15.64c0-1.49-.47-2.69-1.4-3.6-.94-.91-2.23-1.37-3.87-1.37h-8.2v9.82h8.25c1.72,0,3.02-.44,3.9-1.31,.88-.87,1.32-2.06,1.32-3.54Z"/>
          <path d="M246.47,145.34c1.91,0,3.56,.37,4.94,1.1,1.38,.73,2.54,1.68,3.45,2.83,.92,1.16,1.59,2.46,2.02,3.9,.43,1.44,.65,2.85,.65,4.24s-.25,2.84-.76,4.27c-.51,1.42-1.24,2.71-2.19,3.87-.95,1.16-2.13,2.11-3.54,2.83-1.4,.73-3,1.1-4.8,1.1h-9.38v14.54h-7.69v-38.68h17.29Zm-9.6,17.24h7.86c1.76,0,3.09-.49,3.99-1.47,.9-.98,1.35-2.2,1.35-3.67s-.46-2.75-1.38-3.73c-.92-.98-2.24-1.47-3.96-1.47h-7.86v10.33Z"/>
          <path d="M290.99,171.67c0,2.1-.39,3.93-1.18,5.5-.78,1.57-1.85,2.9-3.19,3.99-1.34,1.09-2.92,1.9-4.74,2.44-1.81,.54-3.73,.81-5.74,.81s-3.93-.27-5.74-.81c-1.81-.54-3.39-1.36-4.74-2.44-1.34-1.08-2.41-2.41-3.19-3.99-.78-1.57-1.18-3.41-1.18-5.5v-14.2c0-2.06,.41-3.87,1.23-5.45,.82-1.57,1.92-2.88,3.31-3.93,1.38-1.05,2.97-1.83,4.76-2.36,1.79-.52,3.64-.79,5.55-.79s3.75,.28,5.55,.84c1.79,.56,3.38,1.38,4.76,2.44,1.38,1.07,2.48,2.4,3.31,3.99,.82,1.59,1.23,3.42,1.23,5.47v13.98Zm-7.69-12.63c0-1.27-.21-2.35-.62-3.23-.41-.88-.95-1.6-1.63-2.16s-1.43-.97-2.27-1.24c-.84-.26-1.71-.39-2.61-.39s-1.78,.13-2.64,.39c-.86,.26-1.63,.67-2.3,1.24-.67,.56-1.22,1.28-1.63,2.16-.41,.88-.62,1.96-.62,3.23v11.28c0,1.27,.21,2.36,.62,3.26,.41,.9,.95,1.63,1.63,2.19,.67,.56,1.44,.96,2.3,1.21,.86,.24,1.74,.36,2.64,.36s1.77-.12,2.61-.36c.84-.24,1.6-.65,2.27-1.21s1.22-1.29,1.63-2.19c.41-.9,.62-1.98,.62-3.26v-11.28Z"/>
          <path d="M320.13,154.72c-1.2-1.01-2.49-1.71-3.87-2.11-1.38-.39-2.73-.59-4.04-.59-.86,0-1.72,.12-2.58,.37-.86,.24-1.63,.65-2.3,1.21-.67,.56-1.23,1.29-1.66,2.19-.43,.9-.65,1.98-.65,3.26v11.28c0,1.27,.21,2.35,.65,3.23,.43,.88,.99,1.6,1.68,2.16,.69,.56,1.46,.97,2.3,1.24,.84,.26,1.69,.39,2.55,.39,1.31,0,2.63-.19,3.96-.56,1.33-.37,2.67-1.08,4.01-2.13l3.65,5.95c-1.42,1.2-3.16,2.13-5.22,2.81-2.06,.67-4.23,1.01-6.51,1.01-1.83,0-3.63-.26-5.39-.79-1.76-.52-3.33-1.3-4.72-2.33-1.39-1.03-2.51-2.32-3.37-3.87-.86-1.55-1.29-3.38-1.29-5.47v-14.48c0-2.06,.42-3.86,1.26-5.42,.84-1.55,1.95-2.85,3.31-3.9,1.37-1.05,2.93-1.83,4.69-2.36,1.76-.52,3.56-.79,5.39-.79,2.25,0,4.41,.3,6.48,.9,2.08,.6,3.86,1.55,5.36,2.86l-3.71,5.95Z"/>
          <path d="M351.63,154.72c-1.2-1.01-2.49-1.71-3.87-2.11-1.38-.39-2.73-.59-4.04-.59-.86,0-1.72,.12-2.58,.37-.86,.24-1.63,.65-2.3,1.21-.67,.56-1.23,1.29-1.66,2.19-.43,.9-.65,1.98-.65,3.26v11.28c0,1.27,.21,2.35,.65,3.23,.43,.88,.99,1.6,1.68,2.16,.69,.56,1.46,.97,2.3,1.24,.84,.26,1.69,.39,2.55,.39,1.31,0,2.63-.19,3.96-.56,1.33-.37,2.67-1.08,4.01-2.13l3.65,5.95c-1.42,1.2-3.16,2.13-5.22,2.81-2.06,.67-4.23,1.01-6.51,1.01-1.83,0-3.63-.26-5.39-.79-1.76-.52-3.33-1.3-4.72-2.33-1.39-1.03-2.51-2.32-3.37-3.87-.86-1.55-1.29-3.38-1.29-5.47v-14.48c0-2.06,.42-3.86,1.26-5.42,.84-1.55,1.95-2.85,3.31-3.9,1.37-1.05,2.93-1.83,4.69-2.36,1.76-.52,3.56-.79,5.39-.79,2.25,0,4.41,.3,6.48,.9,2.08,.6,3.86,1.55,5.36,2.86l-3.71,5.95Z"/>
          <path d="M383.63,158.82l-3.82,5.9c-.45,.71-1,1.58-1.66,2.61-.66,1.03-1.38,2.14-2.16,3.34-.79,1.2-1.59,2.43-2.41,3.7-.82,1.27-1.62,2.51-2.39,3.71-.77,1.2-1.49,2.31-2.16,3.34s-1.24,1.9-1.68,2.61h-6.96v-38.68h7.69v25.43h.22l8.07-12.63,8.23-12.8h7v38.68h-7.69v-25.21h-.28Z"/>
          <path d="M421.52,158.82l-3.82,5.9c-.45,.71-1,1.58-1.66,2.61-.66,1.03-1.38,2.14-2.16,3.34-.79,1.2-1.59,2.43-2.41,3.7-.82,1.27-1.62,2.51-2.39,3.71-.77,1.2-1.49,2.31-2.16,3.34s-1.24,1.9-1.68,2.61h-6.96v-38.68h7.69v25.43h.22l8.07-12.63,8.23-12.8h7v38.68h-7.69v-25.21h-.28Z"/>
        </g>
      </g>
    </g>
  </g>
</svg>